<svg width="23" height="25" viewBox="0 0 23 25" fill="none" xmlns="http://www.w3.org/2000/svg">
<path d="M14.1538 6.64062C14.5835 6.64062 14.9351 6.28906 14.9351 5.85938C14.9351 5.42969 14.5835 5.07812 14.1538 5.07812C13.7241 5.07812 13.3726 5.42969 13.3726 5.85938C13.3726 6.28906 13.7241 6.64062 14.1538 6.64062ZM22.7476 17.5V1.25C22.7476 0.46875 22.2788 0 21.4976 0H5.56006C2.90381 0 0.872559 2.03125 0.872559 4.6875V20.3125C0.872559 22.9688 2.90381 25 5.56006 25H21.4976C22.1226 25 22.7476 24.5312 22.7476 23.75V22.9687C22.7476 22.6562 22.5913 22.3438 22.2788 22.0313C22.1226 21.25 22.1226 19.0625 22.2788 18.4375C22.5913 18.2813 22.7476 17.9687 22.7476 17.5ZM12.5913 2.73438C14.7495 2.73438 16.4976 4.13574 16.4976 5.85938C16.4976 6.87988 15.8774 7.77344 14.9351 8.34473V8.98438C14.9351 9.41406 14.5835 9.76562 14.1538 9.76562H11.0288C10.5991 9.76562 10.2476 9.41406 10.2476 8.98438V8.34473C9.30518 7.77344 8.68506 6.87988 8.68506 5.85938C8.68506 4.13574 10.4331 2.73438 12.5913 2.73438ZM6.96631 10.9033L7.27393 10.1855C7.35693 9.98535 7.58643 9.89746 7.78662 9.98047L12.5864 12.0361L17.3911 9.98047C17.5913 9.89746 17.8208 9.98535 17.9038 10.1855L18.2114 10.9033C18.2944 11.1035 18.2065 11.333 18.0063 11.416L14.5737 12.8906L18.0063 14.3604C18.2065 14.4434 18.2944 14.6729 18.2114 14.873L17.9038 15.5908C17.8208 15.791 17.5913 15.8789 17.3911 15.7959L12.5913 13.7402L7.7915 15.8008C7.59131 15.8838 7.36182 15.7959 7.27881 15.5957L6.97119 14.8779C6.88818 14.6777 6.97607 14.4482 7.17627 14.3652L10.6138 12.8955L7.17139 11.416C6.97119 11.333 6.8833 11.1035 6.96631 10.9033ZM19.4663 21.875H5.56006C4.62256 21.875 3.99756 21.25 3.99756 20.3125C3.99756 19.375 4.77881 18.75 5.56006 18.75H19.4663V21.875ZM11.0288 6.64062C11.4585 6.64062 11.8101 6.28906 11.8101 5.85938C11.8101 5.42969 11.4585 5.07812 11.0288 5.07812C10.5991 5.07812 10.2476 5.42969 10.2476 5.85938C10.2476 6.28906 10.5991 6.64062 11.0288 6.64062Z" fill="#5B5959"/>
</svg>
