<svg width="22" height="25" viewBox="0 0 22 25" fill="none" xmlns="http://www.w3.org/2000/svg">
<path d="M21.8726 17.5781V1.17188C21.8726 0.522461 21.3501 0 20.7007 0H4.68506C2.09717 0 -0.00244141 2.09961 -0.00244141 4.6875V20.3125C-0.00244141 22.9004 2.09717 25 4.68506 25H20.7007C21.3501 25 21.8726 24.4775 21.8726 23.8281V23.0469C21.8726 22.6807 21.7017 22.3486 21.438 22.1338C21.2329 21.3818 21.2329 19.2383 21.438 18.4863C21.7017 18.2764 21.8726 17.9443 21.8726 17.5781ZM6.24756 6.54297C6.24756 6.38184 6.37939 6.25 6.54053 6.25H16.8921C17.0532 6.25 17.1851 6.38184 17.1851 6.54297V7.51953C17.1851 7.68066 17.0532 7.8125 16.8921 7.8125H6.54053C6.37939 7.8125 6.24756 7.68066 6.24756 7.51953V6.54297ZM6.24756 9.66797C6.24756 9.50684 6.37939 9.375 6.54053 9.375H16.8921C17.0532 9.375 17.1851 9.50684 17.1851 9.66797V10.6445C17.1851 10.8057 17.0532 10.9375 16.8921 10.9375H6.54053C6.37939 10.9375 6.24756 10.8057 6.24756 10.6445V9.66797ZM18.6206 21.875H4.68506C3.8208 21.875 3.12256 21.1768 3.12256 20.3125C3.12256 19.4531 3.82568 18.75 4.68506 18.75H18.6206C18.5278 19.585 18.5278 21.04 18.6206 21.875Z" fill="#8B6A42"/>
</svg>
