<svg width="25" height="23" viewBox="0 0 25 23" fill="none" xmlns="http://www.w3.org/2000/svg">
<path d="M23.7042 0.809729C23.4612 0.267194 22.7667 0.245493 22.4759 0.757645C21.1304 3.09706 18.7216 4.55539 15.9698 4.55539H12.4976C7.89693 4.55539 4.16429 8.28803 4.16429 12.8887C4.16429 13.1925 4.19901 13.4833 4.2294 13.7785C6.99849 11.795 10.9959 10.1109 16.6643 10.1109C17.0462 10.1109 17.3587 10.4234 17.3587 10.8054C17.3587 11.1873 17.0462 11.4998 16.6643 11.4998C5.75283 11.4998 1.1261 18.1882 0.101792 20.7012C-0.184666 21.4087 0.153875 22.216 0.86134 22.5068C1.57315 22.8019 2.38044 22.459 2.67558 21.7559C2.74068 21.5997 3.58269 19.6769 5.79624 17.8236C7.20249 19.729 9.8761 21.5476 13.3874 21.1743C20.2016 20.6795 24.9976 14.5684 24.9976 7.08577C24.9976 4.90695 24.5289 2.65001 23.7042 0.809729Z" fill="#83AF52"/>
</svg>
