<svg width="36" height="36" viewBox="0 0 36 36" fill="none" xmlns="http://www.w3.org/2000/svg">
<mask id="mask0_291_2" style="mask-type:alpha" maskUnits="userSpaceOnUse" x="0" y="0" width="36" height="36">
<rect width="36" height="36" fill="#D9D9D9"/>
</mask>
<g mask="url(#mask0_291_2)">
<path d="M29.4 31.5L19.95 22.05C19.2 22.65 18.3375 23.125 17.3625 23.475C16.3875 23.825 15.35 24 14.25 24C11.525 24 9.21875 23.0563 7.33125 21.1688C5.44375 19.2813 4.5 16.975 4.5 14.25C4.5 11.525 5.44375 9.21875 7.33125 7.33125C9.21875 5.44375 11.525 4.5 14.25 4.5C16.975 4.5 19.2813 5.44375 21.1688 7.33125C23.0563 9.21875 24 11.525 24 14.25C24 15.35 23.825 16.3875 23.475 17.3625C23.125 18.3375 22.65 19.2 22.05 19.95L31.5 29.4L29.4 31.5ZM14.25 21C16.125 21 17.7188 20.3438 19.0312 19.0312C20.3438 17.7188 21 16.125 21 14.25C21 12.375 20.3438 10.7812 19.0312 9.46875C17.7188 8.15625 16.125 7.5 14.25 7.5C12.375 7.5 10.7812 8.15625 9.46875 9.46875C8.15625 10.7812 7.5 12.375 7.5 14.25C7.5 16.125 8.15625 17.7188 9.46875 19.0312C10.7812 20.3438 12.375 21 14.25 21Z" fill="#32530D"/>
</g>
</svg>
